<svg xmlns="http://www.w3.org/2000/svg" viewBox="0 0 320 291.5"><defs><style>.cls-1{fill:none;stroke:#4d4d4d;stroke-miterlimit:10;}.cls-15,.cls-2{font-size:12px;font-family:MyriadPro-Regular, Myriad Pro;}.cls-3{letter-spacing:-0.01em;}.cls-4{letter-spacing:-0.01em;}.cls-5{letter-spacing:0em;}.cls-6{letter-spacing:-0.01em;}.cls-7{letter-spacing:0.01em;}.cls-8{letter-spacing:-0.01em;}.cls-9{letter-spacing:-0.01em;}.cls-10{letter-spacing:0em;}.cls-11{letter-spacing:-0.01em;}.cls-12{letter-spacing:0em;}.cls-13{font-size:18px;font-family:MyriadPro-BoldCond, Myriad Pro;font-weight:700;}.cls-14{letter-spacing:0em;}.cls-15{fill:#fff;}</style></defs><g id="Layer_2" data-name="Layer 2"><g id="Layer_1-2" data-name="Layer 1"><rect class="cls-1" x="0.5" y="0.5" width="319" height="183"/><text class="cls-2" transform="translate(0.94 228.88)"><tspan class="cls-3">L</tspan><tspan x="5.5" y="0">o</tspan><tspan class="cls-4" x="12.08" y="0">r</tspan><tspan x="15.89" y="0">em ipsum dolor sit ame</tspan><tspan class="cls-5" x="133.13" y="0">t</tspan><tspan x="137.06" y="0">, </tspan><tspan class="cls-6" x="142.09" y="0">c</tspan><tspan x="147.39" y="0">onse</tspan><tspan class="cls-7" x="171.41" y="0">c</tspan><tspan class="cls-8" x="176.94" y="0">t</tspan><tspan x="180.84" y="0">etuer adipiscing eli</tspan><tspan class="cls-5" x="275.41" y="0">t</tspan><tspan x="279.34" y="0">, sed </tspan><tspan x="0" y="14.4">diam nonum</tspan><tspan class="cls-9" x="64.44" y="14.4">m</tspan><tspan x="74.29" y="14.4">y nibh euismod tincidu</tspan><tspan class="cls-10" x="189.08" y="14.4">n</tspan><tspan x="195.69" y="14.4">t ut lao</tspan><tspan class="cls-4" x="230.54" y="14.4">r</tspan><tspan x="234.35" y="14.4">eet dolo</tspan><tspan class="cls-4" x="275.66" y="14.4">r</tspan><tspan x="279.46" y="14.4">e </tspan><tspan x="0" y="28.8">ma</tspan><tspan class="cls-6" x="15.79" y="28.8">g</tspan><tspan x="22.43" y="28.8">na aliquam e</tspan><tspan class="cls-11" x="86.56" y="28.8">r</tspan><tspan class="cls-10" x="90.42" y="28.8">a</tspan><tspan x="96.16" y="28.8">t </tspan><tspan class="cls-4" x="102.67" y="28.8">v</tspan><tspan x="108.32" y="28.8">olutp</tspan><tspan class="cls-10" x="135.15" y="28.8">a</tspan><tspan class="cls-12" x="140.89" y="28.8">t</tspan><tspan x="144.83" y="28.8">. </tspan></text><text class="cls-13" transform="translate(0.94 209.81)"><tspan class="cls-14">H</tspan><tspan x="9.18" y="0">eading</tspan></text><rect x="0.5" y="274.5" width="73" height="17"/><text class="cls-15" transform="translate(19.88 286.52)">But<tspan class="cls-6" x="17.09" y="0">t</tspan><tspan x="20.99" y="0">on</tspan></text></g></g></svg>