<svg xmlns="http://www.w3.org/2000/svg" xmlns:xlink="http://www.w3.org/1999/xlink" viewBox="0 0 811.94 326.26"><defs><style>.cls-1{fill:none;}.cls-2{fill:#81c1f9;}.cls-3{fill:#b3dafb;}.cls-4{fill:#91c9fa;}.cls-5{clip-path:url(#clip-path);}.cls-6{fill:#a1d1fa;}</style><clipPath id="clip-path" transform="translate(220.98)"><path id="Mask" class="cls-1" d="M4.11,0H365.89C368.16,0,370,2.15,370,4.8V175c0,2.65-1.84,4.8-4.11,4.8H4.11C1.84,179.83,0,177.68,0,175V4.8C0,2.15,1.84,0,4.11,0Z"/></clipPath></defs><g id="Layer_2" data-name="Layer 2"><g id="Layer_1-2" data-name="Layer 1"><g id="Card"><path id="Shape" class="cls-2" d="M4,285.43h97.56c2.2,0,4,.66,4,1.48v31.83c0,.82-1.78,1.48-4,1.48H4c-2.2,0-4-.66-4-1.48V286.91C0,286.09,1.78,285.43,4,285.43Z" transform="translate(220.98)"/><path id="Text" class="cls-3" d="M4.11,235H365.89c2.27,0,4.11,2.14,4.11,4.79v9.59c0,2.65-1.84,4.8-4.11,4.8H4.11C1.84,254.16,0,252,0,249.36v-9.59C0,237.12,1.84,235,4.11,235Z" transform="translate(220.98)"/><path id="Title" class="cls-4" d="M4.11,203.8H203.5c2.27,0,4.11,2.15,4.11,4.8v9.59c0,2.65-1.84,4.8-4.11,4.8H4.11C1.84,223,0,220.84,0,218.19V208.6C0,206,1.84,203.8,4.11,203.8Z" transform="translate(220.98)"/><g id="Image"><path id="Mask-2" data-name="Mask" class="cls-2" d="M4.11,0H365.89C368.16,0,370,2.15,370,4.8V175c0,2.65-1.84,4.8-4.11,4.8H4.11C1.84,179.83,0,177.68,0,175V4.8C0,2.15,1.84,0,4.11,0Z" transform="translate(220.98)"/><g id="Shape-2" data-name="Shape"><g class="cls-5"><g id="Shape-3" data-name="Shape"><path class="cls-6" d="M254.07,77.92a6.29,6.29,0,0,0-7,0l-84.63,61.71a6.29,6.29,0,0,1-7,0L103,101.3a6.41,6.41,0,0,0-7-.06L-221,326.09l811.94.17Z" transform="translate(220.98)"/><ellipse class="cls-6" cx="374.11" cy="54.63" rx="20.56" ry="23.95"/></g></g></g></g></g></g></g></svg>