<?xml version="1.0" encoding="utf-8"?>
<!-- Generator: Adobe Illustrator 24.1.0, SVG Export Plug-In . SVG Version: 6.00 Build 0)  -->
<svg version="1.1" id="Layer_1" xmlns="http://www.w3.org/2000/svg" xmlns:xlink="http://www.w3.org/1999/xlink" x="0px" y="0px"
	 viewBox="0 0 389 378" style="enable-background:new 0 0 389 378;" xml:space="preserve">
<style type="text/css">
	.st0{fill:#81C1F9;}
	.st1{fill:#B3DAFB;}
	.st2{fill:#91C9FA;}
	.st3{clip-path:url(#Mask_1_);}
	.st4{fill:#A1D1FA;}
</style>
<g id="Card_5_">
	<path id="Shape_23_" class="st0" d="M28.2,287.7h89.6c2,0,3.7,0.5,3.7,1.2V314c0,0.6-1.6,1.2-3.7,1.2H28.2c-2,0-3.7-0.5-3.7-1.2
		v-25.1C24.5,288.2,26.1,287.7,28.2,287.7z"/>
	<path id="Text_1_" class="st1" d="M28.3,248h332.4c2.1,0,3.8,1.7,3.8,3.8v7.6c0,2.1-1.7,3.8-3.8,3.8H28.3c-2.1,0-3.8-1.7-3.8-3.8
		v-7.6C24.5,249.7,26.2,248,28.3,248z"/>
	<path id="Title_1_" class="st2" d="M28.3,223.4h183.2c2.1,0,3.8,1.7,3.8,3.8v7.6c0,2.1-1.7,3.8-3.8,3.8H28.3
		c-2.1,0-3.8-1.7-3.8-3.8v-7.6C24.5,225.1,26.2,223.4,28.3,223.4z"/>
	<g id="Image_1_" transform="translate(10.000000, 27.000000)">
		<path id="Mask_4_" class="st0" d="M18.3,35.9h332.4c2.1,0,3.8,1.7,3.8,3.8v134.1c0,2.1-1.7,3.8-3.8,3.8H18.3
			c-2.1,0-3.8-1.7-3.8-3.8V39.6C14.5,37.6,16.2,35.9,18.3,35.9z"/>
		<g id="Shape_19_">
			<defs>
				<path id="Mask_3_" d="M18.3,35.9h332.4c2.1,0,3.8,1.7,3.8,3.8v134.1c0,2.1-1.7,3.8-3.8,3.8H18.3c-2.1,0-3.8-1.7-3.8-3.8V39.6
					C14.5,37.6,16.2,35.9,18.3,35.9z"/>
			</defs>
			<clipPath id="Mask_1_">
				<use xlink:href="#Mask_3_"  style="overflow:visible;"/>
			</clipPath>
			<g id="Shape_20_" class="st3">
				<path class="st4" d="M248,97.2c-1.8-1.1-4.6-1.1-6.4,0l-77.8,48.6c-1.8,1.1-4.6,1.1-6.4,0l-48.3-30.2c-1.8-1.1-4.7-1.1-6.4,0
					l-291.2,177.1l746.1,0.1L248,97.2z"/>
				<ellipse class="st4" cx="155.2" cy="78.9" rx="18.9" ry="18.9"/>
			</g>
		</g>
	</g>
</g>
</svg>
